# WaveFront *.obj file (generated by Autodesk ATF)

mtllib body.mtl

g ソリッド1

v -208.041622 106.609166 -134.373789
v -208.041622 106.609166 165.626211
v -208.041622 306.609166 -134.373789
v -208.041622 306.609166 165.626211
v -188.041622 106.609166 -134.373789
v -188.041622 106.609166 165.626211
v -188.041622 306.609166 -134.373789
v -188.041622 306.609166 165.626211
vt 0.000000 0.000000 0.000000
vt 30.000000 0.000000 0.000000
vt 30.000000 20.000000 0.000000
vt 0.000000 20.000000 0.000000
vt 0.000000 0.000000 0.000000
vt 2.000000 0.000000 0.000000
vt 2.000000 20.000000 0.000000
vt 0.000000 20.000000 0.000000
vt 0.000000 0.000000 0.000000
vt 30.000000 0.000000 0.000000
vt 30.000000 20.000000 0.000000
vt 0.000000 20.000000 0.000000
vt 0.000000 0.000000 0.000000
vt 2.000000 0.000000 0.000000
vt 2.000000 20.000000 0.000000
vt 0.000000 20.000000 0.000000
vt -15.000000 1.000000 0.000000
vt -15.000000 -1.000000 0.000000
vt 15.000000 -1.000000 0.000000
vt 15.000000 1.000000 0.000000
vt 15.000000 -1.000000 0.000000
vt 15.000000 1.000000 0.000000
vt -15.000000 1.000000 0.000000
vt -15.000000 -1.000000 0.000000
vn 0.100000 0.000000 -0.000000
vn 0.100000 0.000000 -0.000000
vn 0.100000 0.000000 -0.000000
vn 0.100000 0.000000 -0.000000
vn 0.000000 -0.000000 0.100000
vn 0.000000 -0.000000 0.100000
vn 0.000000 -0.000000 0.100000
vn 0.000000 -0.000000 0.100000
vn -0.100000 -0.000000 0.000000
vn -0.100000 -0.000000 0.000000
vn -0.100000 -0.000000 0.000000
vn -0.100000 -0.000000 0.000000
vn -0.000000 0.000000 -0.100000
vn -0.000000 0.000000 -0.100000
vn -0.000000 0.000000 -0.100000
vn -0.000000 0.000000 -0.100000
vn -0.000000 0.100000 0.000000
vn -0.000000 0.100000 0.000000
vn -0.000000 0.100000 0.000000
vn -0.000000 0.100000 0.000000
vn 0.000000 -0.100000 -0.000000
vn 0.000000 -0.100000 -0.000000
vn 0.000000 -0.100000 -0.000000
vn 0.000000 -0.100000 -0.000000
usemtl 191,191,191
f 6/1/1 5/2/2 8/4/4
f 8/4/4 5/2/2 7/3/3
f 2/5/5 6/6/6 4/8/8
f 4/8/8 6/6/6 8/7/7
f 1/9/9 2/10/10 3/12/12
f 3/12/12 2/10/10 4/11/11
f 5/13/13 1/14/14 7/16/16
f 7/16/16 1/14/14 3/15/15
f 3/18/18 4/19/19 7/17/17
f 7/17/17 4/19/19 8/20/20
f 5/22/22 6/23/23 1/21/21
f 1/21/21 6/23/23 2/24/24
g ソリッド1:1

v -206.041621 247.236478 229.784536
v -158.041621 247.236478 229.784536
v -158.041621 248.358874 229.696608
v -158.041621 249.483471 229.643812
v -206.041621 250.609166 235.626211
v -188.041622 250.609166 229.626207
v -188.041622 250.609166 145.626211
v -158.041621 250.609166 235.626211
v -158.041621 250.609166 229.626207
v -158.041621 250.609166 145.626211
v -206.041621 251.795395 229.645758
v -188.041622 254.678494 229.856939
v -206.041621 254.784360 235.918169
v -158.041621 254.784360 235.918169
v -206.041621 256.335269 230.084524
v -188.041622 258.695658 230.546179
v -206.041621 258.878287 236.788359
v -158.041621 258.878287 236.788359
v -206.041621 260.783231 231.093779
v -188.041622 262.609166 231.685095
v -188.041622 262.609166 145.626211
v -158.041621 262.609166 231.685095
v -158.041621 262.609166 145.626211
v -206.041621 262.811266 238.219843
v -158.041621 262.811266 238.219843
v -206.041621 265.067881 232.657347
v -206.041621 266.506744 240.184774
v -158.041621 266.506744 240.184774
v -158.041621 266.690008 233.417406
v -206.041621 269.120444 234.750128
v -206.041621 269.892795 242.644873
v -158.041621 269.892795 242.644873
v -158.041621 270.526979 235.638208
v -206.041621 272.875871 237.338514
v -206.041621 272.903511 245.552301
v -158.041621 272.903511 245.552301
v -158.041621 274.061890 238.313761
v -206.041621 275.480294 248.850431
v -158.041621 275.480294 248.850431
v -206.041621 276.273880 240.380964
v -206.041621 276.589929 280.626211
v -158.041621 276.589929 280.626211
v -158.041621 277.241133 241.403532
v -206.041621 277.572988 252.475081
v -158.041621 277.572988 252.475081
v -206.041621 278.424682 276.864405
v -158.041621 278.424682 276.864405
v -206.041621 279.140862 256.355696
v -158.041621 279.140862 256.355696
v -206.041621 279.259927 243.828650
v -206.041621 279.718038 272.883863
v -158.041621 279.718038 272.883863
v -206.041621 279.962616 286.467886
v -158.041621 279.962616 286.467886
v -158.041621 280.016495 244.860640
v -206.041621 280.153399 260.416765
v -158.041621 280.153399 260.416765
v -206.041621 280.444823 268.762064
v -158.041621 280.444823 268.762064
v -206.041621 280.590891 264.579229
v -158.041621 280.590891 264.579229
v -206.041621 281.786080 247.626219
v -158.041621 282.301768 282.701902
v -158.041621 282.345885 248.632669
v -206.041621 282.362265 282.589140
v -206.041621 283.811793 251.712713
v -158.041621 284.160291 278.676958
v -158.041621 284.193978 252.662401
v -206.041621 284.252225 278.438101
v -206.041621 285.304549 256.022539
v -158.041621 285.510002 274.454107
v -158.041621 285.532749 256.888742
v -206.041621 285.602156 274.081430
v -206.041621 286.240384 260.486536
v -158.041621 286.330432 270.097361
v -158.041621 286.341891 261.247587
v -206.041621 286.390391 269.589033
v -206.041621 286.604279 265.033026
v -158.041621 286.609136 265.672827
vt 2.842083 1.303979 0.000000
vt 2.454209 1.543944 0.000000
vt 2.039106 1.732940 0.000000
vt 1.603438 1.867933 0.000000
vt 1.154198 1.946757 0.000000
vt 0.698597 1.968146 0.000000
vt 0.243948 1.931756 0.000000
vt -0.202450 1.838173 0.000000
vt -0.633434 1.688897 0.000000
vt -1.042083 1.486326 0.000000
vt -1.421840 1.233711 0.000000
vt -1.766608 0.935106 0.000000
vt -2.070853 0.595305 0.000000
vt -2.329692 0.219762 0.000000
vt -2.538969 -0.185494 0.000000
vt -2.695326 -0.613959 0.000000
vt -2.796252 -1.058755 0.000000
vt -2.840128 -1.512743 0.000000
vt -2.826250 -1.968634 0.000000
vt -2.242083 -1.631366 0.000000
vt -2.212888 -1.213846 0.000000
vt -2.125869 -0.804454 0.000000
vt -1.982720 -0.411156 0.000000
vt -1.786228 -0.041608 0.000000
vt -1.540217 0.296997 0.000000
vt -1.249475 0.598069 0.000000
vt -0.919662 0.855747 0.000000
vt -0.557197 1.065017 0.000000
vt -0.169134 1.221804 0.000000
vt 0.236972 1.323058 0.000000
vt 0.653218 1.366807 0.000000
vt 1.071502 1.352200 0.000000
vt 1.483683 1.279522 0.000000
vt 1.881737 1.150186 0.000000
vt 2.257917 0.966711 0.000000
vt 1.357917 -1.631366 0.000000
vt 1.380990 -1.224433 0.000000
vt 1.449914 -0.822717 0.000000
vt 1.563804 -0.431366 0.000000
vt -7.042084 -0.431366 0.000000
vt -7.042084 -1.631366 0.000000
vt 0.000000 0.000000 0.000000
vt 1.200000 0.000000 0.000000
vt 1.200000 3.000000 0.000000
vt 0.000000 3.000000 0.000000
vt 0.000000 0.000000 0.000000
vt 8.400001 0.000000 0.000000
vt 8.400001 3.000000 0.000000
vt 0.000000 3.000000 0.000000
vt -0.000000 -11.309733 0.000000
vt -3.000000 -11.309733 0.000000
vt -3.000000 -11.422321 0.000000
vt -3.000000 -11.534909 0.000000
vt -3.000000 -11.647497 0.000000
vt 1.800000 -11.647497 0.000000
vt 1.800000 -11.191089 0.000000
vt 1.800000 -10.734681 0.000000
vt 1.800000 -10.278272 0.000000
vt 1.800000 -9.821864 0.000000
vt 1.800000 -9.365456 0.000000
vt 1.800000 -8.909047 0.000000
vt 1.800000 -8.452639 0.000000
vt 1.800000 -7.996231 0.000000
vt 1.800000 -7.539823 0.000000
vt 1.800000 -7.083414 0.000000
vt 1.800000 -6.627005 0.000000
vt 1.800000 -6.170597 0.000000
vt 1.800000 -5.714189 0.000000
vt 1.800000 -5.257781 0.000000
vt 1.800000 -4.801372 0.000000
vt 1.800000 -4.344964 0.000000
vt 1.800000 -3.888555 0.000000
vt 1.800000 -3.432147 0.000000
vt -3.000000 -3.432147 0.000000
vt -3.000000 -3.875758 0.000000
vt -3.000000 -4.319370 0.000000
vt -3.000000 -4.762982 0.000000
vt -3.000000 -5.206594 0.000000
vt -3.000000 -5.650205 0.000000
vt -3.000000 -6.093816 0.000000
vt -3.000000 -6.537428 0.000000
vt -3.000000 -6.981040 0.000000
vt -3.000000 -7.424651 0.000000
vt -3.000000 -7.868263 0.000000
vt -3.000000 -8.311874 0.000000
vt -3.000000 -8.755486 0.000000
vt -3.000000 -9.199097 0.000000
vt -3.000000 -9.642709 0.000000
vt -3.000000 -10.086320 0.000000
vt -0.000000 -10.086320 0.000000
vt -0.000000 -10.494125 0.000000
vt -0.000000 -10.901929 0.000000
vt 0.674537 -1.800000 0.000000
vt 0.674537 3.000000 0.000000
vt 0.000000 3.000000 0.000000
vt 0.000000 -1.800000 0.000000
vt -1.800000 -9.424778 0.000000
vt 3.000000 -9.424778 0.000000
vt 3.000000 -9.005898 0.000000
vt 3.000000 -8.587020 0.000000
vt 3.000000 -8.168141 0.000000
vt 3.000000 -7.749262 0.000000
vt 3.000000 -7.330383 0.000000
vt 3.000000 -6.911504 0.000000
vt 3.000000 -6.492624 0.000000
vt 3.000000 -6.073746 0.000000
vt 3.000000 -5.654867 0.000000
vt 3.000000 -5.235988 0.000000
vt 3.000000 -4.817109 0.000000
vt 3.000000 -4.398230 0.000000
vt 3.000000 -3.979351 0.000000
vt 3.000000 -3.560472 0.000000
vt 3.000000 -3.141593 0.000000
vt -1.800000 -3.141593 0.000000
vt -1.800000 -3.560472 0.000000
vt -1.800000 -3.979351 0.000000
vt -1.800000 -4.398230 0.000000
vt -1.800000 -4.817109 0.000000
vt -1.800000 -5.235988 0.000000
vt -1.800000 -5.654867 0.000000
vt -1.800000 -6.073746 0.000000
vt -1.800000 -6.492624 0.000000
vt -1.800000 -6.911504 0.000000
vt -1.800000 -7.330383 0.000000
vt -1.800000 -7.749262 0.000000
vt -1.800000 -8.168141 0.000000
vt -1.800000 -8.587020 0.000000
vt -1.800000 -9.005898 0.000000
vt 0.674537 -1.800000 0.000000
vt 0.674537 3.000000 0.000000
vt 0.000000 3.000000 0.000000
vt 0.000000 -1.800000 0.000000
vt 0.000000 0.000000 0.000000
vt 8.605887 0.000000 0.000000
vt 8.605887 3.000000 0.000000
vt 0.000000 3.000000 0.000000
vt 7.042084 -0.431366 0.000000
vt -1.563804 -0.431366 0.000000
vt -1.737037 -0.023281 0.000000
vt -1.959116 0.360416 0.000000
vt -2.226672 0.713907 0.000000
vt -2.535649 1.031831 0.000000
vt -2.881360 1.309367 0.000000
vt -3.258562 1.542306 0.000000
vt -3.661536 1.727116 0.000000
vt -4.084170 1.860993 0.000000
vt -4.520054 1.941907 0.000000
vt -4.962579 1.968631 0.000000
vt -5.405033 1.940761 0.000000
vt -5.840706 1.858718 0.000000
vt -6.262992 1.723747 0.000000
vt -6.665486 1.537894 0.000000
vt -7.042084 1.303979 0.000000
vt -6.457917 0.966711 0.000000
vt -6.081737 1.150186 0.000000
vt -5.683682 1.279522 0.000000
vt -5.271502 1.352200 0.000000
vt -4.853219 1.366807 0.000000
vt -4.436973 1.323058 0.000000
vt -4.030866 1.221804 0.000000
vt -3.642803 1.065017 0.000000
vt -3.280338 0.855747 0.000000
vt -2.950525 0.598069 0.000000
vt -2.659784 0.296997 0.000000
vt -2.413773 -0.041608 0.000000
vt -2.217280 -0.411156 0.000000
vt -2.074132 -0.804454 0.000000
vt -1.987113 -1.213846 0.000000
vt -1.957917 -1.631366 0.000000
vt -1.373750 -1.968634 0.000000
vt -1.364957 -1.856395 0.000000
vt -1.359677 -1.743935 0.000000
vt -1.357917 -1.631366 0.000000
vt 7.042084 -1.631366 0.000000
vn -0.100000 -0.000000 0.000000
vn -0.100000 -0.000000 0.000000
vn -0.100000 -0.000000 0.000000
vn -0.100000 -0.000000 0.000000
vn -0.100000 -0.000000 0.000000
vn -0.100000 -0.000000 0.000000
vn -0.100000 -0.000000 0.000000
vn -0.100000 -0.000000 0.000000
vn -0.100000 -0.000000 0.000000
vn -0.100000 -0.000000 0.000000
vn -0.100000 -0.000000 0.000000
vn -0.100000 -0.000000 0.000000
vn -0.100000 -0.000000 0.000000
vn -0.100000 -0.000000 0.000000
vn -0.100000 -0.000000 0.000000
vn -0.100000 -0.000000 0.000000
vn -0.100000 -0.000000 0.000000
vn -0.100000 -0.000000 0.000000
vn -0.100000 -0.000000 0.000000
vn -0.100000 -0.000000 0.000000
vn -0.100000 -0.000000 0.000000
vn -0.100000 -0.000000 0.000000
vn -0.100000 -0.000000 0.000000
vn -0.100000 -0.000000 0.000000
vn -0.100000 -0.000000 0.000000
vn -0.100000 -0.000000 0.000000
vn -0.100000 -0.000000 0.000000
vn -0.100000 -0.000000 0.000000
vn -0.100000 -0.000000 0.000000
vn -0.100000 -0.000000 0.000000
vn -0.100000 -0.000000 0.000000
vn -0.100000 -0.000000 0.000000
vn -0.100000 -0.000000 0.000000
vn -0.100000 -0.000000 0.000000
vn -0.100000 -0.000000 0.000000
vn -0.100000 -0.000000 0.000000
vn -0.100000 -0.000000 0.000000
vn -0.100000 -0.000000 0.000000
vn -0.100000 -0.000000 0.000000
vn -0.100000 -0.000000 0.000000
vn -0.100000 -0.000000 0.000000
vn -0.000000 0.000000 -0.100000
vn -0.000000 0.000000 -0.100000
vn -0.000000 0.000000 -0.100000
vn -0.000000 0.000000 -0.100000
vn 0.000000 -0.100000 -0.000000
vn 0.000000 -0.100000 -0.000000
vn 0.000000 -0.100000 -0.000000
vn 0.000000 -0.100000 -0.000000
vn -0.000000 0.000000 -0.100000
vn -0.000000 0.000000 -0.100000
vn -0.000000 -0.003127 -0.099951
vn -0.000000 -0.006251 -0.099804
vn -0.000000 -0.009369 -0.099560
vn -0.000000 -0.009369 -0.099560
vn -0.000000 0.003295 -0.099946
vn -0.000000 0.015906 -0.098727
vn -0.000000 0.028261 -0.095923
vn -0.000000 0.040163 -0.091580
vn -0.000000 0.051420 -0.085767
vn -0.000000 0.061852 -0.078577
vn -0.000000 0.071291 -0.070126
vn -0.000000 0.079585 -0.060549
vn -0.000000 0.086603 -0.050000
vn -0.000000 0.092230 -0.038649
vn -0.000000 0.096376 -0.026677
vn -0.000000 0.098976 -0.014277
vn -0.000000 0.099986 -0.001648
vn -0.000000 0.099392 0.011008
vn -0.000000 0.097203 0.023487
vn -0.000000 0.093453 0.035589
vn -0.000000 0.088203 0.047119
vn -0.000000 0.081537 0.057894
vn -0.000000 0.081537 0.057894
vn -0.000000 0.088035 0.047432
vn -0.000000 0.093198 0.036252
vn -0.000000 0.096947 0.024522
vn -0.000000 0.099226 0.012420
vn -0.000000 0.100000 0.000129
vn -0.000000 0.099258 -0.012163
vn -0.000000 0.097010 -0.024271
vn -0.000000 0.093291 -0.036011
vn -0.000000 0.088158 -0.047204
vn -0.000000 0.081687 -0.057682
vn -0.000000 0.073978 -0.067285
vn -0.000000 0.065146 -0.075868
vn -0.000000 0.055327 -0.083300
vn -0.000000 0.044669 -0.089469
vn -0.000000 0.033333 -0.094281
vn -0.000000 0.033333 -0.094281
vn -0.000000 0.022462 -0.097445
vn -0.000000 0.011304 -0.099359
vn 0.000000 -0.086603 0.050000
vn 0.000000 -0.086603 0.050000
vn 0.000000 -0.086603 0.050000
vn 0.000000 -0.086603 0.050000
vn 0.000000 -0.000000 0.100000
vn 0.000000 -0.000000 0.100000
vn 0.000000 -0.013917 0.099027
vn 0.000000 -0.027564 0.096126
vn 0.000000 -0.040674 0.091355
vn 0.000000 -0.052992 0.084805
vn 0.000000 -0.064279 0.076604
vn 0.000000 -0.074314 0.066913
vn 0.000000 -0.082904 0.055919
vn 0.000000 -0.089879 0.043837
vn 0.000000 -0.095106 0.030902
vn 0.000000 -0.098481 0.017365
vn 0.000000 -0.099939 0.003490
vn 0.000000 -0.099452 -0.010453
vn 0.000000 -0.097030 -0.024192
vn 0.000000 -0.092718 -0.037461
vn 0.000000 -0.086603 -0.050000
vn 0.000000 -0.086603 -0.050000
vn 0.000000 -0.092718 -0.037461
vn 0.000000 -0.097030 -0.024192
vn 0.000000 -0.099452 -0.010453
vn 0.000000 -0.099939 0.003490
vn 0.000000 -0.098481 0.017365
vn 0.000000 -0.095106 0.030902
vn 0.000000 -0.089879 0.043837
vn 0.000000 -0.082904 0.055919
vn 0.000000 -0.074314 0.066913
vn 0.000000 -0.064279 0.076604
vn 0.000000 -0.052992 0.084805
vn 0.000000 -0.040674 0.091355
vn 0.000000 -0.027564 0.096126
vn 0.000000 -0.013917 0.099027
vn 0.000000 -0.086603 0.050000
vn 0.000000 -0.086603 0.050000
vn 0.000000 -0.086603 0.050000
vn 0.000000 -0.086603 0.050000
vn -0.000000 0.100000 0.000000
vn -0.000000 0.100000 0.000000
vn -0.000000 0.100000 0.000000
vn -0.000000 0.100000 0.000000
vn 0.100000 0.000000 -0.000000
vn 0.100000 0.000000 -0.000000
vn 0.100000 0.000000 -0.000000
vn 0.100000 0.000000 -0.000000
vn 0.100000 0.000000 -0.000000
vn 0.100000 0.000000 -0.000000
vn 0.100000 0.000000 -0.000000
vn 0.100000 0.000000 -0.000000
vn 0.100000 0.000000 -0.000000
vn 0.100000 0.000000 -0.000000
vn 0.100000 0.000000 -0.000000
vn 0.100000 0.000000 -0.000000
vn 0.100000 0.000000 -0.000000
vn 0.100000 0.000000 -0.000000
vn 0.100000 0.000000 -0.000000
vn 0.100000 0.000000 -0.000000
vn 0.100000 0.000000 -0.000000
vn 0.100000 0.000000 -0.000000
vn 0.100000 0.000000 -0.000000
vn 0.100000 0.000000 -0.000000
vn 0.100000 0.000000 -0.000000
vn 0.100000 0.000000 -0.000000
vn 0.100000 0.000000 -0.000000
vn 0.100000 0.000000 -0.000000
vn 0.100000 0.000000 -0.000000
vn 0.100000 0.000000 -0.000000
vn 0.100000 0.000000 -0.000000
vn 0.100000 0.000000 -0.000000
vn 0.100000 0.000000 -0.000000
vn 0.100000 0.000000 -0.000000
vn 0.100000 0.000000 -0.000000
vn 0.100000 0.000000 -0.000000
vn 0.100000 0.000000 -0.000000
vn 0.100000 0.000000 -0.000000
vn 0.100000 0.000000 -0.000000
vn 0.100000 0.000000 -0.000000
vn 0.100000 0.000000 -0.000000
vn 0.100000 0.000000 -0.000000
f 61/25/25 73/26/26 49/59/59
f 49/59/59 73/26/26 54/58/58
f 54/58/58 73/26/26 77/27/27
f 54/58/58 77/27/27 59/57/57
f 59/57/57 77/27/27 81/28/28
f 59/57/57 81/28/28 66/56/56
f 66/56/56 81/28/28 85/29/29
f 66/56/56 85/29/29 86/30/30
f 66/56/56 86/30/30 68/55/55
f 68/55/55 86/30/30 82/31/31
f 68/55/55 82/31/31 64/54/54
f 64/54/54 82/31/31 78/32/32
f 64/54/54 78/32/32 56/53/53
f 56/53/53 78/32/32 74/33/33
f 56/53/53 74/33/33 52/52/52
f 52/52/52 74/33/33 70/34/34
f 52/52/52 70/34/34 58/35/35
f 52/52/52 58/35/35 46/51/51
f 46/51/51 58/35/35 48/36/36
f 46/51/51 48/36/36 43/50/50
f 43/50/50 48/36/36 42/37/37
f 43/50/50 42/37/37 39/49/49
f 39/49/49 42/37/37 38/38/38
f 39/49/49 38/38/38 35/48/48
f 35/48/48 38/38/38 34/39/39
f 35/48/48 34/39/39 32/47/47
f 32/47/47 34/39/39 27/40/40
f 32/47/47 27/40/40 25/46/46
f 25/46/46 27/40/40 23/41/41
f 25/46/46 23/41/41 21/45/45
f 21/45/45 23/41/41 19/42/42
f 21/45/45 19/42/42 13/44/44
f 13/44/44 19/42/42 9/43/43
f 14/60/60 20/61/61 15/65/65
f 15/65/65 20/61/61 29/64/64
f 29/64/64 20/61/61 24/62/62
f 29/64/64 24/62/62 28/63/63
f 15/66/66 29/67/67 18/69/69
f 18/69/69 29/67/67 31/68/68
f 14/70/70 15/71/71 17/73/73
f 17/73/73 15/71/71 18/72/72
f 17/75/75 12/76/76 14/74/74
f 14/74/74 12/76/76 11/77/77
f 14/74/74 11/77/77 9/79/79
f 9/79/79 11/77/77 10/78/78
f 9/79/79 19/80/80 14/74/74
f 14/74/74 19/80/80 20/116/116
f 20/116/116 19/80/80 23/81/81
f 20/116/116 23/81/81 24/115/115
f 24/115/115 23/81/81 27/82/82
f 24/115/115 27/82/82 28/114/114
f 28/114/114 27/82/82 34/83/83
f 28/114/114 34/83/83 30/113/113
f 30/113/113 34/83/83 37/112/112
f 37/112/112 34/83/83 38/84/84
f 37/112/112 38/84/84 41/111/111
f 41/111/111 38/84/84 42/85/85
f 41/111/111 42/85/85 45/110/110
f 45/110/110 42/85/85 48/86/86
f 45/110/110 48/86/86 51/109/109
f 51/109/109 48/86/86 58/87/87
f 51/109/109 58/87/87 63/108/108
f 63/108/108 58/87/87 70/88/88
f 63/108/108 70/88/88 72/107/107
f 72/107/107 70/88/88 74/89/89
f 72/107/107 74/89/89 76/106/106
f 76/106/106 74/89/89 78/90/90
f 76/106/106 78/90/90 80/105/105
f 80/105/105 78/90/90 82/91/91
f 80/105/105 82/91/91 84/104/104
f 84/104/104 82/91/91 86/92/92
f 84/104/104 86/92/92 87/103/103
f 87/103/103 86/92/92 85/93/93
f 87/103/103 85/93/93 83/102/102
f 83/102/102 85/93/93 81/94/94
f 83/102/102 81/94/94 79/101/101
f 79/101/101 81/94/94 77/95/95
f 79/101/101 77/95/95 75/100/100
f 75/100/100 77/95/95 73/96/96
f 75/100/100 73/96/96 71/99/99
f 71/99/99 73/96/96 61/97/97
f 71/99/99 61/97/97 62/98/98
f 10/118/118 16/119/119 9/117/117
f 9/117/117 16/119/119 13/120/120
f 13/121/121 16/122/122 21/152/152
f 21/152/152 16/122/122 22/123/123
f 21/152/152 22/123/123 25/151/151
f 25/151/151 22/123/123 26/124/124
f 25/151/151 26/124/124 32/150/150
f 32/150/150 26/124/124 33/125/125
f 32/150/150 33/125/125 35/149/149
f 35/149/149 33/125/125 36/126/126
f 35/149/149 36/126/126 39/148/148
f 39/148/148 36/126/126 40/127/127
f 39/148/148 40/127/127 43/147/147
f 43/147/147 40/127/127 44/128/128
f 43/147/147 44/128/128 46/146/146
f 46/146/146 44/128/128 47/129/129
f 46/146/146 47/129/129 52/145/145
f 52/145/145 47/129/129 53/130/130
f 52/145/145 53/130/130 56/144/144
f 56/144/144 53/130/130 57/131/131
f 56/144/144 57/131/131 64/143/143
f 64/143/143 57/131/131 65/132/132
f 64/143/143 65/132/132 68/142/142
f 68/142/142 65/132/132 69/133/133
f 68/142/142 69/133/133 66/141/141
f 66/141/141 69/133/133 67/134/134
f 66/141/141 67/134/134 59/140/140
f 59/140/140 67/134/134 60/135/135
f 59/140/140 60/135/135 54/139/139
f 54/139/139 60/135/135 55/136/136
f 54/139/139 55/136/136 49/138/138
f 49/138/138 55/136/136 50/137/137
f 50/154/154 62/155/155 49/153/153
f 49/153/153 62/155/155 61/156/156
f 29/157/157 28/158/158 31/160/160
f 31/160/160 28/158/158 30/159/159
f 31/161/161 30/162/162 18/198/198
f 18/198/198 30/162/162 26/191/191
f 18/198/198 26/191/191 22/192/192
f 26/191/191 30/162/162 33/190/190
f 33/190/190 30/162/162 37/163/163
f 33/190/190 37/163/163 36/189/189
f 36/189/189 37/163/163 41/164/164
f 36/189/189 41/164/164 40/188/188
f 40/188/188 41/164/164 44/187/187
f 44/187/187 41/164/164 45/165/165
f 44/187/187 45/165/165 47/186/186
f 47/186/186 45/165/165 51/166/166
f 47/186/186 51/166/166 53/185/185
f 53/185/185 51/166/166 63/167/167
f 53/185/185 63/167/167 57/184/184
f 57/184/184 63/167/167 72/168/168
f 57/184/184 72/168/168 65/183/183
f 65/183/183 72/168/168 76/169/169
f 65/183/183 76/169/169 69/182/182
f 69/182/182 76/169/169 80/170/170
f 69/182/182 80/170/170 84/171/171
f 84/171/171 87/172/172 69/182/182
f 69/182/182 87/172/172 83/173/173
f 69/182/182 83/173/173 79/174/174
f 69/182/182 79/174/174 67/181/181
f 67/181/181 79/174/174 75/175/175
f 67/181/181 75/175/175 71/176/176
f 67/181/181 71/176/176 60/180/180
f 60/180/180 71/176/176 62/177/177
f 60/180/180 62/177/177 55/179/179
f 55/179/179 62/177/177 50/178/178
f 18/198/198 22/192/192 17/197/197
f 17/197/197 22/192/192 16/193/193
f 17/197/197 16/193/193 12/196/196
f 12/196/196 16/193/193 11/195/195
f 11/195/195 16/193/193 10/194/194
# 87 vertices
# 198 texture params
# 198 normals
# 166 facets

# 2 groups
