# WaveFront *.obj file (generated by Autodesk ATF)

mtllib rotate.mtl

g ソリッド1

v -5.000000 0.000000 0.000000
v -5.000000 10.000000 0.000000
v -4.966192 0.000000 -0.580465
v -4.966192 0.000000 0.580465
v -4.966192 10.000000 -0.580465
v -4.966192 10.000000 0.580465
v -4.865224 0.000000 -1.153079
v -4.865224 0.000000 1.153079
v -4.865224 10.000000 -1.153079
v -4.865224 10.000000 1.153079
v -4.698463 0.000000 -1.710101
v -4.698463 0.000000 1.710101
v -4.698463 10.000000 -1.710101
v -4.698463 10.000000 1.710101
v -4.468163 0.000000 -2.243996
v -4.468163 0.000000 2.243996
v -4.468163 10.000000 -2.243996
v -4.468163 10.000000 2.243996
v -4.177439 0.000000 -2.747545
v -4.177439 0.000000 2.747545
v -4.177439 10.000000 -2.747545
v -4.177439 10.000000 2.747545
v -3.830222 0.000000 -3.213938
v -3.830222 0.000000 3.213938
v -3.830222 10.000000 -3.213938
v -3.830222 10.000000 3.213938
v -3.431208 0.000000 -3.636868
v -3.431208 0.000000 3.636868
v -3.431208 10.000000 -3.636868
v -3.431208 10.000000 3.636868
v -2.985793 0.000000 -4.010616
v -2.985793 0.000000 4.010616
v -2.985793 10.000000 -4.010616
v -2.985793 10.000000 4.010616
v -2.500000 0.000000 -4.330127
v -2.500000 0.000000 4.330127
v -2.500000 10.000000 -4.330127
v -2.500000 10.000000 4.330127
v -1.980399 0.000000 -4.591081
v -1.980399 0.000000 4.591081
v -1.980399 10.000000 -4.591081
v -1.980399 10.000000 4.591081
v -1.434016 0.000000 -4.789948
v -1.434016 0.000000 4.789948
v -1.434016 10.000000 -4.789948
v -1.434016 10.000000 4.789948
v -0.868241 0.000000 -4.924039
v -0.868241 0.000000 4.924039
v -0.868241 10.000000 -4.924039
v -0.868241 10.000000 4.924039
v -0.290724 0.000000 -4.991541
v -0.290724 0.000000 4.991541
v -0.290724 10.000000 -4.991541
v -0.290724 10.000000 4.991541
v 0.290724 0.000000 -4.991541
v 0.290724 0.000000 4.991541
v 0.290724 10.000000 -4.991541
v 0.290724 10.000000 4.991541
v 0.868241 0.000000 -4.924039
v 0.868241 0.000000 4.924039
v 0.868241 10.000000 -4.924039
v 0.868241 10.000000 4.924039
v 1.434016 0.000000 -4.789948
v 1.434016 0.000000 4.789948
v 1.434016 10.000000 -4.789948
v 1.434016 10.000000 4.789948
v 1.980399 0.000000 -4.591081
v 1.980399 0.000000 4.591081
v 1.980399 10.000000 -4.591081
v 1.980399 10.000000 4.591081
v 2.500000 0.000000 -4.330127
v 2.500000 0.000000 4.330127
v 2.500000 10.000000 -4.330127
v 2.500000 10.000000 4.330127
v 2.985793 0.000000 -4.010616
v 2.985793 0.000000 4.010616
v 2.985793 10.000000 -4.010616
v 2.985793 10.000000 4.010616
v 3.431208 0.000000 -3.636868
v 3.431208 0.000000 3.636868
v 3.431208 10.000000 -3.636868
v 3.431208 10.000000 3.636868
v 3.830222 0.000000 -3.213938
v 3.830222 0.000000 3.213938
v 3.830222 10.000000 -3.213938
v 3.830222 10.000000 3.213938
v 4.177439 0.000000 -2.747545
v 4.177439 0.000000 2.747545
v 4.177439 10.000000 -2.747545
v 4.177439 10.000000 2.747545
v 4.468163 0.000000 -2.243996
v 4.468163 0.000000 2.243996
v 4.468163 10.000000 -2.243996
v 4.468163 10.000000 2.243996
v 4.698463 0.000000 -1.710101
v 4.698463 0.000000 1.710101
v 4.698463 10.000000 -1.710101
v 4.698463 10.000000 1.710101
v 4.865224 0.000000 -1.153079
v 4.865224 0.000000 1.153079
v 4.865224 10.000000 -1.153079
v 4.865224 10.000000 1.153079
v 4.966192 0.000000 -0.580465
v 4.966192 0.000000 0.580465
v 4.966192 10.000000 -0.580465
v 4.966192 10.000000 0.580465
v 5.000000 0.000000 0.000000
v 5.000000 10.000000 0.000000
vt -1.000000 0.000000 0.000000
vt -1.000000 -0.058178 0.000000
vt -1.000000 -0.116355 0.000000
vt -1.000000 -0.174533 0.000000
vt -1.000000 -0.232711 0.000000
vt -1.000000 -0.290888 0.000000
vt -1.000000 -0.349066 0.000000
vt -1.000000 -0.407243 0.000000
vt -1.000000 -0.465421 0.000000
vt -1.000000 -0.523599 0.000000
vt -1.000000 -0.581776 0.000000
vt -1.000000 -0.639954 0.000000
vt -1.000000 -0.698132 0.000000
vt -1.000000 -0.756309 0.000000
vt -1.000000 -0.814487 0.000000
vt -1.000000 -0.872665 0.000000
vt -1.000000 -0.930842 0.000000
vt -1.000000 -0.989020 0.000000
vt -1.000000 -1.047198 0.000000
vt -1.000000 -1.105375 0.000000
vt -1.000000 -1.163553 0.000000
vt -1.000000 -1.221730 0.000000
vt -1.000000 -1.279908 0.000000
vt -1.000000 -1.338086 0.000000
vt -1.000000 -1.396263 0.000000
vt -1.000000 -1.454441 0.000000
vt -1.000000 -1.512619 0.000000
vt -1.000000 1.570796 0.000000
vt -1.000000 1.512619 0.000000
vt -1.000000 1.454441 0.000000
vt -1.000000 1.396263 0.000000
vt -1.000000 1.338086 0.000000
vt -1.000000 1.279908 0.000000
vt -1.000000 1.221730 0.000000
vt -1.000000 1.163553 0.000000
vt -1.000000 1.105375 0.000000
vt -1.000000 1.047198 0.000000
vt -1.000000 0.989020 0.000000
vt -1.000000 0.930842 0.000000
vt -1.000000 0.872665 0.000000
vt -1.000000 0.814487 0.000000
vt -1.000000 0.756309 0.000000
vt -1.000000 0.698132 0.000000
vt -1.000000 0.639954 0.000000
vt -1.000000 0.581776 0.000000
vt -1.000000 0.523599 0.000000
vt -1.000000 0.465421 0.000000
vt -1.000000 0.407243 0.000000
vt -1.000000 0.349066 0.000000
vt -1.000000 0.290888 0.000000
vt -1.000000 0.232711 0.000000
vt -1.000000 0.174533 0.000000
vt -1.000000 0.116355 0.000000
vt -1.000000 0.058178 0.000000
vt -0.000000 0.000000 0.000000
vt -0.000000 0.058178 0.000000
vt -0.000000 0.116355 0.000000
vt -0.000000 0.174533 0.000000
vt -0.000000 0.232711 0.000000
vt -0.000000 0.290888 0.000000
vt -0.000000 0.349066 0.000000
vt -0.000000 0.407243 0.000000
vt -0.000000 0.465421 0.000000
vt -0.000000 0.523599 0.000000
vt -0.000000 0.581776 0.000000
vt -0.000000 0.639954 0.000000
vt -0.000000 0.698132 0.000000
vt -0.000000 0.756309 0.000000
vt -0.000000 0.814487 0.000000
vt -0.000000 0.872665 0.000000
vt -0.000000 0.930842 0.000000
vt -0.000000 0.989020 0.000000
vt -0.000000 1.047198 0.000000
vt -0.000000 1.105375 0.000000
vt -0.000000 1.163553 0.000000
vt -0.000000 1.221730 0.000000
vt -0.000000 1.279908 0.000000
vt -0.000000 1.338086 0.000000
vt -0.000000 1.396263 0.000000
vt -0.000000 1.454441 0.000000
vt -0.000000 1.512619 0.000000
vt -0.000000 -1.570796 0.000000
vt -0.000000 -1.512619 0.000000
vt -0.000000 -1.454441 0.000000
vt -0.000000 -1.396263 0.000000
vt -0.000000 -1.338086 0.000000
vt -0.000000 -1.279908 0.000000
vt -0.000000 -1.221730 0.000000
vt -0.000000 -1.163553 0.000000
vt -0.000000 -1.105375 0.000000
vt -0.000000 -1.047198 0.000000
vt -0.000000 -0.989020 0.000000
vt -0.000000 -0.930842 0.000000
vt -0.000000 -0.872665 0.000000
vt -0.000000 -0.814487 0.000000
vt -0.000000 -0.756309 0.000000
vt -0.000000 -0.698132 0.000000
vt -0.000000 -0.639954 0.000000
vt -0.000000 -0.581776 0.000000
vt -0.000000 -0.523599 0.000000
vt -0.000000 -0.465421 0.000000
vt -0.000000 -0.407243 0.000000
vt -0.000000 -0.349066 0.000000
vt -0.000000 -0.290888 0.000000
vt -0.000000 -0.232711 0.000000
vt -0.000000 -0.174533 0.000000
vt -0.000000 -0.116355 0.000000
vt -0.000000 -0.058178 0.000000
vt -0.000000 1.570796 0.000000
vt -1.000000 -1.570796 0.000000
vt 0.000000 -0.500000 0.000000
vt 0.058046 -0.496619 0.000000
vt 0.115308 -0.486522 0.000000
vt 0.171010 -0.469846 0.000000
vt 0.224400 -0.446816 0.000000
vt 0.274754 -0.417744 0.000000
vt 0.321394 -0.383022 0.000000
vt 0.363687 -0.343121 0.000000
vt 0.401062 -0.298579 0.000000
vt 0.433013 -0.250000 0.000000
vt 0.459108 -0.198040 0.000000
vt 0.478995 -0.143402 0.000000
vt 0.492404 -0.086824 0.000000
vt 0.499154 -0.029072 0.000000
vt 0.499154 0.029072 0.000000
vt 0.492404 0.086824 0.000000
vt 0.478995 0.143402 0.000000
vt 0.459108 0.198040 0.000000
vt 0.433013 0.250000 0.000000
vt 0.401062 0.298579 0.000000
vt 0.363687 0.343121 0.000000
vt 0.321394 0.383022 0.000000
vt 0.274754 0.417744 0.000000
vt 0.224400 0.446816 0.000000
vt 0.171010 0.469846 0.000000
vt 0.115308 0.486522 0.000000
vt 0.058046 0.496619 0.000000
vt 0.000000 0.500000 0.000000
vt -0.058046 0.496619 0.000000
vt -0.115308 0.486522 0.000000
vt -0.171010 0.469846 0.000000
vt -0.224400 0.446816 0.000000
vt -0.274754 0.417744 0.000000
vt -0.321394 0.383022 0.000000
vt -0.363687 0.343121 0.000000
vt -0.401062 0.298579 0.000000
vt -0.433013 0.250000 0.000000
vt -0.459108 0.198040 0.000000
vt -0.478995 0.143402 0.000000
vt -0.492404 0.086824 0.000000
vt -0.499154 0.029072 0.000000
vt -0.499154 -0.029072 0.000000
vt -0.492404 -0.086824 0.000000
vt -0.478995 -0.143402 0.000000
vt -0.459108 -0.198040 0.000000
vt -0.433013 -0.250000 0.000000
vt -0.401062 -0.298579 0.000000
vt -0.363687 -0.343121 0.000000
vt -0.321394 -0.383022 0.000000
vt -0.274754 -0.417744 0.000000
vt -0.224400 -0.446816 0.000000
vt -0.171010 -0.469846 0.000000
vt -0.115308 -0.486522 0.000000
vt -0.058046 -0.496619 0.000000
vt -0.000000 -0.500000 0.000000
vt 0.058046 -0.496619 0.000000
vt 0.115308 -0.486522 0.000000
vt 0.171010 -0.469846 0.000000
vt 0.224400 -0.446816 0.000000
vt 0.274754 -0.417744 0.000000
vt 0.321394 -0.383022 0.000000
vt 0.363687 -0.343121 0.000000
vt 0.401062 -0.298579 0.000000
vt 0.433013 -0.250000 0.000000
vt 0.459108 -0.198040 0.000000
vt 0.478995 -0.143402 0.000000
vt 0.492404 -0.086824 0.000000
vt 0.499154 -0.029072 0.000000
vt 0.499154 0.029072 0.000000
vt 0.492404 0.086824 0.000000
vt 0.478995 0.143402 0.000000
vt 0.459108 0.198040 0.000000
vt 0.433013 0.250000 0.000000
vt 0.401062 0.298579 0.000000
vt 0.363687 0.343121 0.000000
vt 0.321394 0.383022 0.000000
vt 0.274754 0.417744 0.000000
vt 0.224400 0.446816 0.000000
vt 0.171010 0.469846 0.000000
vt 0.115308 0.486522 0.000000
vt 0.058046 0.496619 0.000000
vt -0.000000 0.500000 0.000000
vt -0.058046 0.496619 0.000000
vt -0.115308 0.486522 0.000000
vt -0.171010 0.469846 0.000000
vt -0.224400 0.446816 0.000000
vt -0.274754 0.417744 0.000000
vt -0.321394 0.383022 0.000000
vt -0.363687 0.343121 0.000000
vt -0.401062 0.298579 0.000000
vt -0.433013 0.250000 0.000000
vt -0.459108 0.198040 0.000000
vt -0.478995 0.143402 0.000000
vt -0.492404 0.086824 0.000000
vt -0.499154 0.029072 0.000000
vt -0.499154 -0.029072 0.000000
vt -0.492404 -0.086824 0.000000
vt -0.478995 -0.143402 0.000000
vt -0.459108 -0.198040 0.000000
vt -0.433013 -0.250000 0.000000
vt -0.401062 -0.298579 0.000000
vt -0.363687 -0.343121 0.000000
vt -0.321394 -0.383022 0.000000
vt -0.274754 -0.417744 0.000000
vt -0.224400 -0.446816 0.000000
vt -0.171010 -0.469846 0.000000
vt -0.115308 -0.486522 0.000000
vt -0.058046 -0.496619 0.000000
vn -0.100000 0.000000 0.000000
vn -0.099324 0.000000 -0.011609
vn -0.097304 0.000000 -0.023062
vn -0.093969 0.000000 -0.034202
vn -0.089363 0.000000 -0.044880
vn -0.083549 0.000000 -0.054951
vn -0.076604 0.000000 -0.064279
vn -0.068624 0.000000 -0.072737
vn -0.059716 0.000000 -0.080212
vn -0.050000 0.000000 -0.086603
vn -0.039608 0.000000 -0.091822
vn -0.028680 0.000000 -0.095799
vn -0.017365 0.000000 -0.098481
vn -0.005814 0.000000 -0.099831
vn 0.005814 0.000000 -0.099831
vn 0.017365 0.000000 -0.098481
vn 0.028680 0.000000 -0.095799
vn 0.039608 0.000000 -0.091822
vn 0.050000 0.000000 -0.086603
vn 0.059716 0.000000 -0.080212
vn 0.068624 0.000000 -0.072737
vn 0.076604 0.000000 -0.064279
vn 0.083549 0.000000 -0.054951
vn 0.089363 0.000000 -0.044880
vn 0.093969 0.000000 -0.034202
vn 0.097304 0.000000 -0.023062
vn 0.099324 0.000000 -0.011609
vn 0.100000 0.000000 0.000000
vn 0.099324 0.000000 0.011609
vn 0.097304 0.000000 0.023062
vn 0.093969 0.000000 0.034202
vn 0.089363 0.000000 0.044880
vn 0.083549 0.000000 0.054951
vn 0.076604 0.000000 0.064279
vn 0.068624 0.000000 0.072737
vn 0.059716 0.000000 0.080212
vn 0.050000 0.000000 0.086603
vn 0.039608 0.000000 0.091822
vn 0.028680 0.000000 0.095799
vn 0.017365 0.000000 0.098481
vn 0.005814 0.000000 0.099831
vn -0.005814 0.000000 0.099831
vn -0.017365 0.000000 0.098481
vn -0.028680 0.000000 0.095799
vn -0.039608 0.000000 0.091822
vn -0.050000 0.000000 0.086603
vn -0.059716 0.000000 0.080212
vn -0.068624 0.000000 0.072737
vn -0.076604 0.000000 0.064279
vn -0.083549 0.000000 0.054951
vn -0.089363 0.000000 0.044880
vn -0.093969 0.000000 0.034202
vn -0.097304 0.000000 0.023062
vn -0.099324 0.000000 0.011609
vn -0.100000 0.000000 0.000000
vn -0.099324 0.000000 0.011609
vn -0.097304 0.000000 0.023062
vn -0.093969 0.000000 0.034202
vn -0.089363 0.000000 0.044880
vn -0.083549 0.000000 0.054951
vn -0.076604 0.000000 0.064279
vn -0.068624 0.000000 0.072737
vn -0.059716 0.000000 0.080212
vn -0.050000 0.000000 0.086603
vn -0.039608 0.000000 0.091822
vn -0.028680 0.000000 0.095799
vn -0.017365 0.000000 0.098481
vn -0.005814 0.000000 0.099831
vn 0.005814 0.000000 0.099831
vn 0.017365 0.000000 0.098481
vn 0.028680 0.000000 0.095799
vn 0.039608 0.000000 0.091822
vn 0.050000 0.000000 0.086603
vn 0.059716 0.000000 0.080212
vn 0.068624 0.000000 0.072737
vn 0.076604 0.000000 0.064279
vn 0.083549 0.000000 0.054951
vn 0.089363 0.000000 0.044880
vn 0.093969 0.000000 0.034202
vn 0.097304 0.000000 0.023062
vn 0.099324 0.000000 0.011609
vn 0.100000 0.000000 0.000000
vn 0.099324 0.000000 -0.011609
vn 0.097304 0.000000 -0.023062
vn 0.093969 0.000000 -0.034202
vn 0.089363 0.000000 -0.044880
vn 0.083549 0.000000 -0.054951
vn 0.076604 0.000000 -0.064279
vn 0.068624 0.000000 -0.072737
vn 0.059716 0.000000 -0.080212
vn 0.050000 0.000000 -0.086603
vn 0.039608 0.000000 -0.091822
vn 0.028680 0.000000 -0.095799
vn 0.017365 0.000000 -0.098481
vn 0.005814 0.000000 -0.099831
vn -0.005814 0.000000 -0.099831
vn -0.017365 0.000000 -0.098481
vn -0.028680 0.000000 -0.095799
vn -0.039608 0.000000 -0.091822
vn -0.050000 0.000000 -0.086603
vn -0.059716 0.000000 -0.080212
vn -0.068624 0.000000 -0.072737
vn -0.076604 0.000000 -0.064279
vn -0.083549 0.000000 -0.054951
vn -0.089363 0.000000 -0.044880
vn -0.093969 0.000000 -0.034202
vn -0.097304 0.000000 -0.023062
vn -0.099324 0.000000 -0.011609
vn 0.100000 0.000000 0.000000
vn 0.100000 0.000000 0.000000
vn 0.000000 0.100000 0.000000
vn 0.000000 0.100000 0.000000
vn 0.000000 0.100000 0.000000
vn 0.000000 0.100000 0.000000
vn 0.000000 0.100000 0.000000
vn 0.000000 0.100000 0.000000
vn 0.000000 0.100000 0.000000
vn 0.000000 0.100000 0.000000
vn 0.000000 0.100000 0.000000
vn 0.000000 0.100000 0.000000
vn 0.000000 0.100000 0.000000
vn 0.000000 0.100000 0.000000
vn 0.000000 0.100000 0.000000
vn 0.000000 0.100000 0.000000
vn 0.000000 0.100000 0.000000
vn 0.000000 0.100000 0.000000
vn 0.000000 0.100000 0.000000
vn 0.000000 0.100000 0.000000
vn 0.000000 0.100000 0.000000
vn 0.000000 0.100000 0.000000
vn 0.000000 0.100000 0.000000
vn 0.000000 0.100000 0.000000
vn 0.000000 0.100000 0.000000
vn 0.000000 0.100000 0.000000
vn 0.000000 0.100000 0.000000
vn 0.000000 0.100000 0.000000
vn 0.000000 0.100000 0.000000
vn 0.000000 0.100000 0.000000
vn 0.000000 0.100000 0.000000
vn 0.000000 0.100000 0.000000
vn 0.000000 0.100000 0.000000
vn 0.000000 0.100000 0.000000
vn 0.000000 0.100000 0.000000
vn 0.000000 0.100000 0.000000
vn 0.000000 0.100000 0.000000
vn 0.000000 0.100000 0.000000
vn 0.000000 0.100000 0.000000
vn 0.000000 0.100000 0.000000
vn 0.000000 0.100000 0.000000
vn 0.000000 0.100000 0.000000
vn 0.000000 0.100000 0.000000
vn 0.000000 0.100000 0.000000
vn 0.000000 0.100000 0.000000
vn 0.000000 0.100000 0.000000
vn 0.000000 0.100000 0.000000
vn 0.000000 0.100000 0.000000
vn 0.000000 0.100000 0.000000
vn 0.000000 0.100000 0.000000
vn 0.000000 0.100000 0.000000
vn 0.000000 0.100000 0.000000
vn 0.000000 0.100000 0.000000
vn 0.000000 0.100000 0.000000
vn 0.000000 0.100000 0.000000
vn 0.000000 0.100000 0.000000
vn 0.000000 -0.100000 0.000000
vn 0.000000 -0.100000 0.000000
vn 0.000000 -0.100000 0.000000
vn 0.000000 -0.100000 0.000000
vn 0.000000 -0.100000 0.000000
vn 0.000000 -0.100000 0.000000
vn 0.000000 -0.100000 0.000000
vn 0.000000 -0.100000 0.000000
vn 0.000000 -0.100000 0.000000
vn 0.000000 -0.100000 0.000000
vn 0.000000 -0.100000 0.000000
vn 0.000000 -0.100000 0.000000
vn 0.000000 -0.100000 0.000000
vn 0.000000 -0.100000 0.000000
vn 0.000000 -0.100000 0.000000
vn 0.000000 -0.100000 0.000000
vn 0.000000 -0.100000 0.000000
vn 0.000000 -0.100000 0.000000
vn 0.000000 -0.100000 0.000000
vn 0.000000 -0.100000 0.000000
vn 0.000000 -0.100000 0.000000
vn 0.000000 -0.100000 0.000000
vn 0.000000 -0.100000 0.000000
vn 0.000000 -0.100000 0.000000
vn 0.000000 -0.100000 0.000000
vn 0.000000 -0.100000 0.000000
vn 0.000000 -0.100000 0.000000
vn 0.000000 -0.100000 0.000000
vn 0.000000 -0.100000 0.000000
vn 0.000000 -0.100000 0.000000
vn 0.000000 -0.100000 0.000000
vn 0.000000 -0.100000 0.000000
vn 0.000000 -0.100000 0.000000
vn 0.000000 -0.100000 0.000000
vn 0.000000 -0.100000 0.000000
vn 0.000000 -0.100000 0.000000
vn 0.000000 -0.100000 0.000000
vn 0.000000 -0.100000 0.000000
vn 0.000000 -0.100000 0.000000
vn 0.000000 -0.100000 0.000000
vn 0.000000 -0.100000 0.000000
vn 0.000000 -0.100000 0.000000
vn 0.000000 -0.100000 0.000000
vn 0.000000 -0.100000 0.000000
vn 0.000000 -0.100000 0.000000
vn 0.000000 -0.100000 0.000000
vn 0.000000 -0.100000 0.000000
vn 0.000000 -0.100000 0.000000
vn 0.000000 -0.100000 0.000000
vn 0.000000 -0.100000 0.000000
vn 0.000000 -0.100000 0.000000
vn 0.000000 -0.100000 0.000000
vn 0.000000 -0.100000 0.000000
vn 0.000000 -0.100000 0.000000
usemtl 191,191,191
f 5/2/2 3/108/108 2/1/1
f 2/1/1 3/108/108 1/55/55
f 2/1/1 1/55/55 6/54/54
f 6/54/54 1/55/55 4/56/56
f 6/54/54 4/56/56 10/53/53
f 10/53/53 4/56/56 8/57/57
f 10/53/53 8/57/57 14/52/52
f 14/52/52 8/57/57 12/58/58
f 14/52/52 12/58/58 18/51/51
f 18/51/51 12/58/58 16/59/59
f 18/51/51 16/59/59 22/50/50
f 22/50/50 16/59/59 20/60/60
f 22/50/50 20/60/60 26/49/49
f 26/49/49 20/60/60 24/61/61
f 26/49/49 24/61/61 30/48/48
f 30/48/48 24/61/61 28/62/62
f 30/48/48 28/62/62 34/47/47
f 34/47/47 28/62/62 32/63/63
f 34/47/47 32/63/63 38/46/46
f 38/46/46 32/63/63 36/64/64
f 38/46/46 36/64/64 42/45/45
f 42/45/45 36/64/64 40/65/65
f 42/45/45 40/65/65 46/44/44
f 46/44/44 40/65/65 44/66/66
f 46/44/44 44/66/66 50/43/43
f 50/43/43 44/66/66 48/67/67
f 50/43/43 48/67/67 54/42/42
f 54/42/42 48/67/67 52/68/68
f 54/42/42 52/68/68 58/41/41
f 58/41/41 52/68/68 56/69/69
f 58/41/41 56/69/69 62/40/40
f 62/40/40 56/69/69 60/70/70
f 62/40/40 60/70/70 66/39/39
f 66/39/39 60/70/70 64/71/71
f 66/39/39 64/71/71 70/38/38
f 70/38/38 64/71/71 68/72/72
f 70/38/38 68/72/72 74/37/37
f 74/37/37 68/72/72 72/73/73
f 74/37/37 72/73/73 78/36/36
f 78/36/36 72/73/73 76/74/74
f 78/36/36 76/74/74 82/35/35
f 82/35/35 76/74/74 80/75/75
f 82/35/35 80/75/75 86/34/34
f 86/34/34 80/75/75 84/76/76
f 86/34/34 84/76/76 90/33/33
f 90/33/33 84/76/76 88/77/77
f 90/33/33 88/77/77 94/32/32
f 94/32/32 88/77/77 92/78/78
f 94/32/32 92/78/78 98/31/31
f 98/31/31 92/78/78 96/79/79
f 98/31/31 96/79/79 102/30/30
f 102/30/30 96/79/79 100/80/80
f 102/30/30 100/80/80 106/29/29
f 106/29/29 100/80/80 104/81/81
f 106/29/29 104/81/81 108/28/28
f 108/28/28 104/81/81 107/109/109
f 108/110/110 107/82/82 105/27/27
f 105/27/27 107/82/82 103/83/83
f 105/27/27 103/83/83 101/26/26
f 101/26/26 103/83/83 99/84/84
f 101/26/26 99/84/84 97/25/25
f 97/25/25 99/84/84 95/85/85
f 97/25/25 95/85/85 93/24/24
f 93/24/24 95/85/85 91/86/86
f 93/24/24 91/86/86 89/23/23
f 89/23/23 91/86/86 87/87/87
f 89/23/23 87/87/87 85/22/22
f 85/22/22 87/87/87 83/88/88
f 85/22/22 83/88/88 81/21/21
f 81/21/21 83/88/88 79/89/89
f 81/21/21 79/89/89 77/20/20
f 77/20/20 79/89/89 75/90/90
f 77/20/20 75/90/90 73/19/19
f 73/19/19 75/90/90 71/91/91
f 73/19/19 71/91/91 69/18/18
f 69/18/18 71/91/91 67/92/92
f 69/18/18 67/92/92 65/17/17
f 65/17/17 67/92/92 63/93/93
f 65/17/17 63/93/93 61/16/16
f 61/16/16 63/93/93 59/94/94
f 61/16/16 59/94/94 57/15/15
f 57/15/15 59/94/94 55/95/95
f 57/15/15 55/95/95 53/14/14
f 53/14/14 55/95/95 51/96/96
f 53/14/14 51/96/96 49/13/13
f 49/13/13 51/96/96 47/97/97
f 49/13/13 47/97/97 45/12/12
f 45/12/12 47/97/97 43/98/98
f 45/12/12 43/98/98 41/11/11
f 41/11/11 43/98/98 39/99/99
f 41/11/11 39/99/99 37/10/10
f 37/10/10 39/99/99 35/100/100
f 37/10/10 35/100/100 33/9/9
f 33/9/9 35/100/100 31/101/101
f 33/9/9 31/101/101 29/8/8
f 29/8/8 31/101/101 27/102/102
f 29/8/8 27/102/102 25/7/7
f 25/7/7 27/102/102 23/103/103
f 25/7/7 23/103/103 21/6/6
f 21/6/6 23/103/103 19/104/104
f 21/6/6 19/104/104 17/5/5
f 17/5/5 19/104/104 15/105/105
f 17/5/5 15/105/105 13/4/4
f 13/4/4 15/105/105 11/106/106
f 13/4/4 11/106/106 9/3/3
f 9/3/3 11/106/106 7/107/107
f 9/3/3 7/107/107 5/2/2
f 5/2/2 7/107/107 3/108/108
f 2/111/111 6/112/112 5/164/164
f 5/164/164 6/112/112 9/163/163
f 9/163/163 6/112/112 10/113/113
f 9/163/163 10/113/113 13/162/162
f 13/162/162 10/113/113 14/114/114
f 13/162/162 14/114/114 17/161/161
f 17/161/161 14/114/114 18/115/115
f 17/161/161 18/115/115 21/160/160
f 21/160/160 18/115/115 22/116/116
f 21/160/160 22/116/116 25/159/159
f 25/159/159 22/116/116 26/117/117
f 25/159/159 26/117/117 29/158/158
f 29/158/158 26/117/117 30/118/118
f 29/158/158 30/118/118 33/157/157
f 33/157/157 30/118/118 34/119/119
f 33/157/157 34/119/119 37/156/156
f 37/156/156 34/119/119 38/120/120
f 37/156/156 38/120/120 41/155/155
f 41/155/155 38/120/120 42/121/121
f 41/155/155 42/121/121 45/154/154
f 45/154/154 42/121/121 46/122/122
f 45/154/154 46/122/122 49/153/153
f 49/153/153 46/122/122 53/152/152
f 53/152/152 46/122/122 50/123/123
f 53/152/152 50/123/123 57/151/151
f 57/151/151 50/123/123 61/150/150
f 61/150/150 50/123/123 65/149/149
f 65/149/149 50/123/123 69/148/148
f 69/148/148 50/123/123 73/147/147
f 73/147/147 50/123/123 77/146/146
f 77/146/146 50/123/123 81/145/145
f 81/145/145 50/123/123 85/144/144
f 85/144/144 50/123/123 89/143/143
f 89/143/143 50/123/123 93/142/142
f 93/142/142 50/123/123 97/141/141
f 97/141/141 50/123/123 101/140/140
f 101/140/140 50/123/123 105/139/139
f 105/139/139 50/123/123 108/138/138
f 108/138/138 50/123/123 106/137/137
f 106/137/137 50/123/123 102/136/136
f 102/136/136 50/123/123 98/135/135
f 98/135/135 50/123/123 94/134/134
f 94/134/134 50/123/123 90/133/133
f 90/133/133 50/123/123 86/132/132
f 86/132/132 50/123/123 82/131/131
f 82/131/131 50/123/123 78/130/130
f 78/130/130 50/123/123 74/129/129
f 74/129/129 50/123/123 70/128/128
f 70/128/128 50/123/123 66/127/127
f 66/127/127 50/123/123 62/126/126
f 62/126/126 50/123/123 54/124/124
f 62/126/126 54/124/124 58/125/125
f 1/165/165 3/166/166 4/218/218
f 4/218/218 3/166/166 8/217/217
f 8/217/217 3/166/166 7/167/167
f 8/217/217 7/167/167 12/216/216
f 12/216/216 7/167/167 11/168/168
f 12/216/216 11/168/168 16/215/215
f 16/215/215 11/168/168 15/169/169
f 16/215/215 15/169/169 20/214/214
f 20/214/214 15/169/169 19/170/170
f 20/214/214 19/170/170 24/213/213
f 24/213/213 19/170/170 23/171/171
f 24/213/213 23/171/171 28/212/212
f 28/212/212 23/171/171 27/172/172
f 28/212/212 27/172/172 32/211/211
f 32/211/211 27/172/172 31/173/173
f 32/211/211 31/173/173 36/210/210
f 36/210/210 31/173/173 35/174/174
f 36/210/210 35/174/174 40/209/209
f 40/209/209 35/174/174 39/175/175
f 40/209/209 39/175/175 44/208/208
f 44/208/208 39/175/175 43/176/176
f 44/208/208 43/176/176 48/207/207
f 48/207/207 43/176/176 52/206/206
f 52/206/206 43/176/176 47/177/177
f 52/206/206 47/177/177 56/205/205
f 56/205/205 47/177/177 60/204/204
f 60/204/204 47/177/177 64/203/203
f 64/203/203 47/177/177 68/202/202
f 68/202/202 47/177/177 72/201/201
f 72/201/201 47/177/177 76/200/200
f 76/200/200 47/177/177 80/199/199
f 80/199/199 47/177/177 84/198/198
f 84/198/198 47/177/177 88/197/197
f 88/197/197 47/177/177 92/196/196
f 92/196/196 47/177/177 96/195/195
f 96/195/195 47/177/177 100/194/194
f 100/194/194 47/177/177 104/193/193
f 104/193/193 47/177/177 107/192/192
f 107/192/192 47/177/177 103/191/191
f 103/191/191 47/177/177 99/190/190
f 99/190/190 47/177/177 95/189/189
f 95/189/189 47/177/177 91/188/188
f 91/188/188 47/177/177 87/187/187
f 87/187/187 47/177/177 83/186/186
f 83/186/186 47/177/177 79/185/185
f 79/185/185 47/177/177 75/184/184
f 75/184/184 47/177/177 71/183/183
f 71/183/183 47/177/177 67/182/182
f 67/182/182 47/177/177 63/181/181
f 63/181/181 47/177/177 59/180/180
f 59/180/180 47/177/177 51/178/178
f 59/180/180 51/178/178 55/179/179
# 108 vertices
# 218 texture params
# 218 normals
# 212 facets

# 1 groups
